<?xml version="1.0" encoding="UTF-8" standalone="no"?>
<svg
   xmlns:dc="http://purl.org/dc/elements/1.1/"
   xmlns:cc="http://creativecommons.org/ns#"
   xmlns:rdf="http://www.w3.org/1999/02/22-rdf-syntax-ns#"
   xmlns:svg="http://www.w3.org/2000/svg"
   xmlns="http://www.w3.org/2000/svg"
   id="svg8"
   version="1.1"
   viewBox="0 0 48 32"
   height="32mm"
   width="48mm">
  <title
     id="title3729">Watset</title>
  <defs
     id="defs2" />
  <metadata
     id="metadata5">
    <rdf:RDF>
      <cc:Work
         rdf:about="">
        <dc:format>image/svg+xml</dc:format>
        <dc:type
           rdf:resource="http://purl.org/dc/dcmitype/StillImage" />
        <dc:title>Watset</dc:title>
      </cc:Work>
    </rdf:RDF>
  </metadata>
  <g
     transform="translate(0,-257)"
     id="layer1">
    <circle
       r="8"
       style="fill:#b3cde3;fill-opacity:1;stroke-width:0.26458332"
       cy="265"
       cx="8.000001"
       id="path815" />
    <circle
       r="8"
       style="fill:#8c96c6;fill-opacity:1;stroke-width:0.26458332"
       cy="265"
       cx="23.999998"
       id="path815-3" />
    <circle
       r="8"
       style="fill:#b3cde3;fill-opacity:1;stroke-width:0.26458332"
       cy="265"
       cx="39.999992"
       id="path815-6" />
    <circle
       r="8"
       style="fill:#8c96c6;fill-opacity:1;stroke-width:0.26458332"
       cy="281"
       cx="8"
       id="path815-7" />
    <circle
       r="8"
       style="fill:#b3cde3;fill-opacity:1;stroke-width:0.26458332"
       cy="281"
       cx="24"
       id="path815-5" />
    <circle
       r="8"
       style="fill:#8c96c6;fill-opacity:1;stroke-width:0.26458332"
       cy="281"
       cx="40"
       id="path815-35" />
    <g
       id="text4565"
       style="font-style:normal;font-variant:normal;font-weight:bold;font-stretch:normal;font-size:12.69999981px;line-height:1;font-family:'PT Sans';-inkscape-font-specification:'PT Sans Bold';text-align:center;letter-spacing:0px;word-spacing:0px;text-anchor:middle;fill:#000000;fill-opacity:1;stroke:none;stroke-width:0.26458332"
       aria-label="w">
      <path
         id="path3731"
         style="font-size:12.69999981px;line-height:1;text-align:center;text-anchor:middle;stroke-width:0.26458332"
         d="m 8.7429512,261.79325 1.1556999,3.2512 0.2285999,1.0541 h 0.0508 l 0.1778,-1.0668 0.8128,-3.2385 h 1.5113 l -1.9558,6.4135 H 9.5049512 l -1.2827,-3.556 -0.1651,-0.8001 h -0.0635 l -0.1524,0.8128 -1.2192,3.5433 h -1.2573 l -2.0447,-6.4135 h 1.7907 l 0.9271,3.1877 0.1524,1.1303 h 0.0635 l 0.2159,-1.143 1.0541,-3.175 z" />
    </g>
    <g
       id="text4569"
       style="font-style:normal;font-variant:normal;font-weight:bold;font-stretch:normal;font-size:12.69999981px;line-height:1;font-family:'PT Sans';-inkscape-font-specification:'PT Sans Bold';text-align:center;letter-spacing:0px;word-spacing:0px;text-anchor:middle;fill:#000000;fill-opacity:1;stroke:none;stroke-width:0.26458332"
       aria-label="a">
      <path
         id="path3746"
         style="font-size:12.69999981px;line-height:1;text-align:center;text-anchor:middle;stroke-width:0.26458332"
         d="m 21.650498,262.20601 q 0.508,-0.2286 1.2065,-0.3556 0.6985,-0.1397 1.4605,-0.1397 0.6604,0 1.1049,0.1651 0.4445,0.1524 0.6985,0.4445 0.2667,0.2921 0.3683,0.6985 0.1143,0.4064 0.1143,0.9144 0,0.5588 -0.0381,1.1303 -0.0381,0.5588 -0.0508,1.1049 0,0.5461 0.0381,1.0668 0.0381,0.508 0.1905,0.9652 h -1.3462 l -0.2667,-0.8763 h -0.0635 q -0.254,0.3937 -0.7112,0.6858 -0.4445,0.2794 -1.1557,0.2794 -0.4445,0 -0.8001,-0.127 -0.3556,-0.1397 -0.6096,-0.381 -0.254,-0.254 -0.3937,-0.5842 -0.1397,-0.3429 -0.1397,-0.762 0,-0.5842 0.254,-0.9779 0.2667,-0.4064 0.7493,-0.6477 0.4953,-0.254 1.1684,-0.3429 0.6858,-0.1016 1.524,-0.0635 0.0889,-0.7112 -0.1016,-1.016 -0.1905,-0.3175 -0.8509,-0.3175 -0.4953,0 -1.0541,0.1016 -0.5461,0.1016 -0.9017,0.2667 z m 2.0955,4.7244 q 0.4953,0 0.7874,-0.2159 0.2921,-0.2286 0.4318,-0.4826 v -0.8255 q -0.3937,-0.0381 -0.762,-0.0127 -0.3556,0.0254 -0.635,0.1143 -0.2794,0.0889 -0.4445,0.254 -0.1651,0.1651 -0.1651,0.4191 0,0.3556 0.2032,0.5588 0.2159,0.1905 0.5842,0.1905 z" />
    </g>
    <g
       id="text4573"
       style="font-style:normal;font-variant:normal;font-weight:bold;font-stretch:normal;font-size:12.69999981px;line-height:1;font-family:'PT Sans';-inkscape-font-specification:'PT Sans Bold';text-align:center;letter-spacing:0px;word-spacing:0px;text-anchor:middle;fill:#000000;fill-opacity:1;stroke:none;stroke-width:0.26458332"
       aria-label="t">
      <path
         id="path3743"
         style="font-size:12.69999981px;line-height:1;text-align:center;text-anchor:middle;stroke-width:0.26458332"
         d="m 37.847341,262.56794 h 0.8763 v -1.1938 l 1.651,-0.4699 v 1.6637 h 1.5494 v 1.397 h -1.5494 v 2.4384 q 0,0.6604 0.127,0.9525 0.1397,0.2794 0.508,0.2794 0.254,0 0.4318,-0.0508 0.1905,-0.0508 0.4191,-0.1524 l 0.2921,1.27 q -0.3429,0.1651 -0.8001,0.2794 -0.4572,0.1143 -0.9271,0.1143 -0.8763,0 -1.2954,-0.4445 -0.4064,-0.4572 -0.4064,-1.4859 v -3.2004 h -0.8763 z" />
    </g>
    <g
       id="text4577"
       style="font-style:normal;font-variant:normal;font-weight:bold;font-stretch:normal;font-size:12.69999981px;line-height:1;font-family:'PT Sans';-inkscape-font-specification:'PT Sans Bold';text-align:center;letter-spacing:0px;word-spacing:0px;text-anchor:middle;fill:#000000;fill-opacity:1;stroke:none;stroke-width:0.26458332"
       aria-label="s">
      <path
         id="path3734"
         style="font-size:12.69999981px;line-height:1;text-align:center;text-anchor:middle;stroke-width:0.26458332"
         d="m 8.6921499,282.42239 q 0,-0.254 -0.2159,-0.4064 -0.2159,-0.1524 -0.5334,-0.2794 -0.3175,-0.127 -0.6985,-0.254 -0.3809999,-0.1397 -0.6984999,-0.3683 -0.3175,-0.2413 -0.5334,-0.5969 -0.2159,-0.3683 -0.2159,-0.9398 0,-0.9398 0.5588,-1.4351 0.5588,-0.4953 1.6128999,-0.4953 0.7239,0 1.3081,0.1524 0.5842,0.1524 0.9144001,0.3429 l -0.3683001,1.1938 q -0.2921,-0.1143 -0.7366,-0.2413 -0.4445,-0.127 -0.9017,-0.127 -0.7366,0 -0.7366,0.5715 0,0.2286 0.2159,0.3683 0.2159,0.1397 0.5334,0.2667 0.3175,0.1143 0.6985,0.254 0.381,0.1397 0.6985,0.3683 0.3175,0.2159 0.5334001,0.5715 0.2159,0.3556 0.2159,0.9144 0,0.9652 -0.6223001,1.524 -0.6096,0.5461 -1.8415,0.5461 -0.6731,0 -1.2699999,-0.1778 -0.5842,-0.1651 -0.9525,-0.3937 l 0.4572,-1.2319 q 0.2921,0.1651 0.7747,0.3302 0.4825999,0.1524 0.9905999,0.1524 0.3683,0 0.5842,-0.1397 0.2286,-0.1397 0.2286,-0.4699 z" />
    </g>
    <g
       id="text4581"
       style="font-style:normal;font-variant:normal;font-weight:bold;font-stretch:normal;font-size:12.69999981px;line-height:1;font-family:'PT Sans';-inkscape-font-specification:'PT Sans Bold';text-align:center;letter-spacing:0px;word-spacing:0px;text-anchor:middle;fill:#000000;fill-opacity:1;stroke:none;stroke-width:0.26458332"
       aria-label="e">
      <path
         id="path3737"
         style="font-size:12.69999981px;line-height:1;text-align:center;text-anchor:middle;stroke-width:0.26458332"
         d="m 26.5908,283.62889 q -0.381,0.3048 -1.0414,0.5207 -0.6477,0.2032 -1.3843,0.2032 -1.5367,0 -2.2479,-0.889 -0.7112,-0.9017 -0.7112,-2.4638 0,-1.6764 0.8001,-2.5146 0.8001,-0.8382 2.2479,-0.8382 0.4826,0 0.9398,0.127 0.4572,0.127 0.8128,0.4191 0.3556,0.2921 0.5715,0.7874 0.2159,0.4953 0.2159,1.2319 0,0.2667 -0.0381,0.5715 -0.0254,0.3048 -0.0889,0.635 h -3.81 q 0.0381,0.8001 0.4064,1.2065 0.381,0.4064 1.2192,0.4064 0.5207,0 0.9271,-0.1524 0.4191,-0.1651 0.635,-0.3302 z m -2.3622,-4.6609 q -0.6477,0 -0.9652,0.3937 -0.3048,0.381 -0.3683,1.0287 h 2.3622 q 0.0508,-0.6858 -0.2159,-1.0541 -0.254,-0.3683 -0.8128,-0.3683 z" />
    </g>
    <g
       id="text4585"
       style="font-style:normal;font-variant:normal;font-weight:bold;font-stretch:normal;font-size:12.69999981px;line-height:1;font-family:'PT Sans';-inkscape-font-specification:'PT Sans Bold';text-align:center;letter-spacing:0px;word-spacing:0px;text-anchor:middle;fill:#000000;fill-opacity:1;stroke:none;stroke-width:0.26458332"
       aria-label="t">
      <path
         id="path3740"
         style="font-size:12.69999981px;line-height:1;text-align:center;text-anchor:middle;stroke-width:0.26458332"
         d="m 37.847349,278.56794 h 0.8763 v -1.1938 l 1.651,-0.4699 v 1.6637 h 1.5494 v 1.397 h -1.5494 v 2.4384 q 0,0.6604 0.127,0.9525 0.1397,0.2794 0.508,0.2794 0.254,0 0.4318,-0.0508 0.1905,-0.0508 0.4191,-0.1524 l 0.2921,1.27 q -0.3429,0.1651 -0.8001,0.2794 -0.4572,0.1143 -0.9271,0.1143 -0.8763,0 -1.2954,-0.4445 -0.4064,-0.4572 -0.4064,-1.4859 v -3.2004 h -0.8763 z" />
    </g>
  </g>
</svg>
