<svg xmlns="http://www.w3.org/2000/svg" viewBox="0 0 48 32" height="32mm" width="48mm"><g transform="translate(0 -257)"><circle r="8" cy="265" cx="8.000001" fill="#b3cde3"/><circle r="8" cy="265" cx="23.999998" fill="#8c96c6"/><circle r="8" cy="265" cx="39.999992" fill="#b3cde3"/><circle r="8" cy="281" cx="8" fill="#8c96c6"/><circle r="8" cy="281" cx="24" fill="#b3cde3"/><circle r="8" cy="281" cx="40" fill="#8c96c6"/><g style="line-height:1;-inkscape-font-specification:'PT Sans Bold';text-align:center"><path d="M8.7429512 261.79325l1.1556999 3.2512.2285999 1.0541h.0508l.1778-1.0668.8128-3.2385h1.5113l-1.9558 6.4135H9.5049512l-1.2827-3.556-.1651-.8001h-.0635l-.1524.8128-1.2192 3.5433h-1.2573l-2.0447-6.4135h1.7907l.9271 3.1877.1524 1.1303h.0635l.2159-1.143 1.0541-3.175z" style="line-height:1;text-align:center" aria-label="w" font-weight="700" font-size="12.69999981" font-family="PT Sans" letter-spacing="0" word-spacing="0" text-anchor="middle" stroke-width=".26458332"/></g><g style="line-height:1;-inkscape-font-specification:'PT Sans Bold';text-align:center"><path d="M21.650498 262.20601q.508-.2286 1.2065-.3556.6985-.1397 1.4605-.1397.6604 0 1.1049.1651.4445.1524.6985.4445.2667.2921.3683.6985.1143.4064.1143.9144 0 .5588-.0381 1.1303-.0381.5588-.0508 1.1049 0 .5461.0381 1.0668.0381.508.1905.9652h-1.3462l-.2667-.8763h-.0635q-.254.3937-.7112.6858-.4445.2794-1.1557.2794-.4445 0-.8001-.127-.3556-.1397-.6096-.381-.254-.254-.3937-.5842-.1397-.3429-.1397-.762 0-.5842.254-.9779.2667-.4064.7493-.6477.4953-.254 1.1684-.3429.6858-.1016 1.524-.0635.0889-.7112-.1016-1.016-.1905-.3175-.8509-.3175-.4953 0-1.0541.1016-.5461.1016-.9017.2667zm2.0955 4.7244q.4953 0 .7874-.2159.2921-.2286.4318-.4826v-.8255q-.3937-.0381-.762-.0127-.3556.0254-.635.1143t-.4445.254q-.1651.1651-.1651.4191 0 .3556.2032.5588.2159.1905.5842.1905z" style="line-height:1;text-align:center" aria-label="a" font-weight="700" font-size="12.69999981" font-family="PT Sans" letter-spacing="0" word-spacing="0" text-anchor="middle" stroke-width=".26458332"/></g><g style="line-height:1;-inkscape-font-specification:'PT Sans Bold';text-align:center"><path d="M37.847341 262.56794h.8763v-1.1938l1.651-.4699v1.6637h1.5494v1.397h-1.5494v2.4384q0 .6604.127.9525.1397.2794.508.2794.254 0 .4318-.0508.1905-.0508.4191-.1524l.2921 1.27q-.3429.1651-.8001.2794-.4572.1143-.9271.1143-.8763 0-1.2954-.4445-.4064-.4572-.4064-1.4859v-3.2004h-.8763z" style="line-height:1;text-align:center" aria-label="t" font-weight="700" font-size="12.69999981" font-family="PT Sans" letter-spacing="0" word-spacing="0" text-anchor="middle" stroke-width=".26458332"/></g><g style="line-height:1;-inkscape-font-specification:'PT Sans Bold';text-align:center"><path d="M8.6921499 282.42239q0-.254-.2159-.4064-.2159-.1524-.5334-.2794-.3175-.127-.6985-.254-.3809999-.1397-.6984999-.3683-.3175-.2413-.5334-.5969-.2159-.3683-.2159-.9398 0-.9398.5588-1.4351.5588-.4953 1.6128999-.4953.7239 0 1.3081.1524t.9144001.3429l-.3683001 1.1938q-.2921-.1143-.7366-.2413t-.9017-.127q-.7366 0-.7366.5715 0 .2286.2159.3683.2159.1397.5334.2667.3175.1143.6985.254t.6985.3683q.3175.2159.5334001.5715.2159.3556.2159.9144 0 .9652-.6223001 1.524-.6096.5461-1.8415.5461-.6731 0-1.2699999-.1778-.5842-.1651-.9525-.3937l.4572-1.2319q.2921.1651.7747.3302.4825999.1524.9905999.1524.3683 0 .5842-.1397.2286-.1397.2286-.4699z" style="line-height:1;text-align:center" aria-label="s" font-weight="700" font-size="12.69999981" font-family="PT Sans" letter-spacing="0" word-spacing="0" text-anchor="middle" stroke-width=".26458332"/></g><g style="line-height:1;-inkscape-font-specification:'PT Sans Bold';text-align:center"><path d="M26.5908 283.62889q-.381.3048-1.0414.5207-.6477.2032-1.3843.2032-1.5367 0-2.2479-.889-.7112-.9017-.7112-2.4638 0-1.6764.8001-2.5146.8001-.8382 2.2479-.8382.4826 0 .9398.127t.8128.4191q.3556.2921.5715.7874.2159.4953.2159 1.2319 0 .2667-.0381.5715-.0254.3048-.0889.635h-3.81q.0381.8001.4064 1.2065.381.4064 1.2192.4064.5207 0 .9271-.1524.4191-.1651.635-.3302zm-2.3622-4.6609q-.6477 0-.9652.3937-.3048.381-.3683 1.0287h2.3622q.0508-.6858-.2159-1.0541-.254-.3683-.8128-.3683z" style="line-height:1;text-align:center" aria-label="e" font-weight="700" font-size="12.69999981" font-family="PT Sans" letter-spacing="0" word-spacing="0" text-anchor="middle" stroke-width=".26458332"/></g><g style="line-height:1;-inkscape-font-specification:'PT Sans Bold';text-align:center"><path d="M37.847349 278.56794h.8763v-1.1938l1.651-.4699v1.6637h1.5494v1.397h-1.5494v2.4384q0 .6604.127.9525.1397.2794.508.2794.254 0 .4318-.0508.1905-.0508.4191-.1524l.2921 1.27q-.3429.1651-.8001.2794-.4572.1143-.9271.1143-.8763 0-1.2954-.4445-.4064-.4572-.4064-1.4859v-3.2004h-.8763z" style="line-height:1;text-align:center" aria-label="t" font-weight="700" font-size="12.69999981" font-family="PT Sans" letter-spacing="0" word-spacing="0" text-anchor="middle" stroke-width=".26458332"/></g></g></svg>
